:SAMPLES-PER-SECOND 30
:FRAME-RANGE 1-3358
:FULLY-SPECIFIED
:DEGREES
105
root  28.4495 39.4845 13.4362 -176.092 -20.7813 175.149
RightUpLeg  -34.6946 2.59177 -9.69823
RightLeg  50.5095 -3.53924 -4.94689
RightFoot  -7.28117 -0.249288 5.62998
RightToes  -1.11029e-010 1.2921e-014 -6.02303e-014
Spine  -0.146934 -0.877482 4.92148
Spine1  3.36065 -0.506441 -2.95547
HEad  -5.94216 9.66995 -13.1575
LeftShoulder1  2.5242 -11.6122 -9.82379
LeftArm  -1.55865 -33.246 -64.5235
LeftForeArm  10.6133 -19.3103 -5.36818
LeftHand  0.223842 7.20417 15.3983
RightShoulder  1.70761 6.61407 10.0152
RightArm  -7.52961 53.0047 83.4077
RightForeArm  47.932 0.313048 0.756124
RightHand  -0.0592646 -5.17599 -32.6567
LeftUpLeg  -0.570587 13.2074 0.91195
LeftLeg  34.4097 0.434495 0.700124
LeftFoot  -2.95136 1.62779 -21.7214
LeftToes  -1.90334e-010 -8.83595e-011 4.99953e-011
106
root  29.8712 38.1872 13.3674 -173.966 -26.4532 174.718
RightUpLeg  -38.8074 8.22284 -16.7815
RightLeg  53.6899 -3.59328 -5.62371
RightFoot  -9.5425 -0.112531 3.04121
RightToes  -1.11029e-010 1.2921e-014 -6.02303e-014
Spine  0.858727 -1.20503 4.52832
Spine1  2.65819 -0.739415 -3.32948
HEad  -10.1612 6.91958 -14.1692
LeftShoulder1  2.51849 -11.953 -9.35884
LeftArm  -3.01476 -36.1664 -66.0656
LeftForeArm  12.0548 -17.7388 -5.86918
LeftHand  0.187233 6.9405 15.2529
RightShoulder  1.61881 6.34753 9.51326
RightArm  -9.30889 54.6793 80.6473
RightForeArm  45.9067 -0.203375 -0.0915011
RightHand  -0.135732 -4.91102 -32.6895
LeftUpLeg  -0.518522 10.464 1.58406
LeftLeg  31.5505 1.89111 1.63012
LeftFoot  -16.4335 -0.7644 -19.2309
LeftToes  -1.90334e-010 -8.83595e-011 4.99953e-011
107
root  31.4512 36.816 13.2972 -172.124 -31.153 172.241
RightUpLeg  -41.5436 13.1406 -25.1262
RightLeg  56.7156 -4.4652 -7.7111
RightFoot  -9.42833 -0.0905669 1.59429
RightToes  -1.11029e-010 1.2921e-014 -6.02303e-014
Spine  5.25176 -1.26637 2.80363
Spine1  0.459517 -0.573261 -3.6579
HEad  -14.6811 4.51667 -14.9945
LeftShoulder1  2.51764 -11.334 -10.1334
LeftArm  -5.11391 -38.9763 -67.2726
LeftForeArm  14.3335 -16.2736 -6.18376
LeftHand  0.130971 6.57484 14.4796
RightShoulder  1.63028 6.38909 9.56595
RightArm  -11.034 56.4374 78.1567
RightForeArm  43.286 -1.87916 -1.31237
RightHand  -0.260096 -4.46011 -31.9649
LeftUpLeg  -3.29362 6.74622 1.81887
LeftLeg  34.3504 1.19309 1.26609
LeftFoot  -25.5486 -1.9029 -16.3995
LeftToes  -1.90334e-010 -8.83595e-011 4.99953e-011
108
root  33.0052 35.7434 12.8034 -169.23 -34.6967 169.63
RightUpLeg  -43.5672 16.7548 -31.2589
RightLeg  58.1843 -3.81788 -7.06401
RightFoot  -4.80252 -0.0144624 -0.317504
RightToes  -1.11029e-010 1.2921e-014 -6.02303e-014
Spine  6.77657 -0.864858 3.38681
Spine1  0.872568 0.516769 -6.39516
HEad  -18.8623 2.28072 -14.617
LeftShoulder1  2.58565 -11.2275 -10.7949
LeftArm  -6.89793 -41.5836 -67.7815
LeftForeArm  16.5613 -14.3545 -6.60411
LeftHand  0.131125 6.54947 14.7649
RightShoulder  1.65447 6.4376 9.75103
RightArm  -12.6685 56.9464 76.1671
RightForeArm  40.5142 -2.86418 -2.07233
RightHand  -0.486442 -3.65253 -31.9171
LeftUpLeg  -6.96298 6.97915 3.40829
LeftLeg  37.0848 -1.6701 -0.957827
LeftFoot  -30.2952 -2.24774 -14.4906
LeftToes  -1.90334e-010 -8.83595e-011 4.99953e-011
109
root  34.6331 34.5897 11.5528 -166.278 -37.614 166.243
RightUpLeg  -40.8391 17.1033 -33.3965
RightLeg  57.76 -3.19905 -5.89504
RightFoot  -15.8268 0.813001 23.2277
RightToes  -1.11029e-010 1.2921e-014 -6.02303e-014
Spine  6.53017 -0.338324 1.61326
Spine1  1.99232 1.4424 -9.3712
HEad  -20.6785 1.40245 -15.2175
LeftShoulder1  2.58963 -10.8493 -11.3558
LeftArm  -5.83347 -42.0443 -67.8663
LeftForeArm  17.3605 -15.1072 -6.41939
LeftHand  0.154856 6.70379 15.1137
RightShoulder  1.72348 7.19384 9.12796
RightArm  -12.166 57.044 75.0905
RightForeArm  39.7102 -5.05105 -1.89107
RightHand  -0.51356 -3.6024 -32.7391
LeftUpLeg  -10.2515 7.65565 5.93863
LeftLeg  41.5292 -5.70642 -4.96777
LeftFoot  -32.2214 -2.70596 -15.6552
LeftToes  -1.90334e-010 -8.83595e-011 4.99953e-011
110
root  35.8982 34.2385 10.2206 -164.369 -41.0062 164.895
RightUpLeg  -37.4992 15.9053 -30.9145
RightLeg  56.3699 -3.66602 -6.33525
RightFoot  -24.3425 2.71059 24.8871
RightToes  -1.11029e-010 1.2921e-014 -6.02303e-014
Spine  5.96557 -0.218496 2.9768
Spine1  2.80238 1.65257 -9.34698
HEad  -19.5017 2.2129 -17.085
LeftShoulder1  2.62962 -10.2935 -12.5122
LeftArm  -2.07394 -39.5232 -66.2008
LeftForeArm  14.4528 -18.8586 -5.31121
LeftHand  0.130606 6.5552 14.6573
RightShoulder  1.78926 7.33567 9.57728
RightArm  -11.1845 56.2617 77.6863
RightForeArm  40.944 -5.22877 -2.14193
RightHand  -0.569223 -3.4097 -32.7454
LeftUpLeg  -12.1594 7.4727 9.74127
LeftLeg  42.2237 -9.40573 -8.62478
LeftFoot  -29.6899 -2.7861 -18.2198
LeftToes  -1.90334e-010 -8.83595e-011 4.99953e-011
